<mxfile host="app.diagrams.net" modified="2024-05-21T15:10:44.265Z" agent="Mozilla/5.0 (Windows NT 10.0; Win64; x64) AppleWebKit/537.36 (KHTML, like Gecko) Chrome/124.0.0.0 Safari/537.36" version="24.4.4" etag="b7ci_uomILIvP0Z0U-mE" type="github">
  <diagram name="Page-1" id="T_TUrl57_qO42ONMsJEx">
    <mxGraphModel>
      <root>
        <mxCell id="0" />
        <mxCell id="1" parent="0" />
      </root>
    </mxGraphModel>
  </diagram>
</mxfile>
